<svg width="55" height="55" viewBox="0 0 55 55" fill="none" xmlns="http://www.w3.org/2000/svg">
<g clip-path="url(#clip0_336_627)">
<path d="M17.5098 8.59375C19.8791 8.59375 21.8066 6.66617 21.8066 4.29688C21.8066 1.92758 19.8791 0 17.5098 0C15.1405 0 13.2129 1.92758 13.2129 4.29688C13.2129 6.66617 15.1405 8.59375 17.5098 8.59375ZM17.5098 2.14844C18.6944 2.14844 19.6582 3.11223 19.6582 4.29688C19.6582 5.48152 18.6944 6.44531 17.5098 6.44531C16.3251 6.44531 15.3613 5.48152 15.3613 4.29688C15.3613 3.11223 16.3251 2.14844 17.5098 2.14844Z" fill="#58DAF8"/>
<path d="M30.7227 8.59375C33.092 8.59375 35.0195 6.66617 35.0195 4.29688C35.0195 1.92758 33.092 0 30.7227 0C28.3534 0 26.4258 1.92758 26.4258 4.29688C26.4258 6.66617 28.3534 8.59375 30.7227 8.59375ZM30.7227 2.14844C31.9073 2.14844 32.8711 3.11223 32.8711 4.29688C32.8711 5.48152 31.9073 6.44531 30.7227 6.44531C29.538 6.44531 28.5742 5.48152 28.5742 4.29688C28.5742 3.11223 29.538 2.14844 30.7227 2.14844Z" fill="#58DAF8"/>
<path d="M4.29688 21.8066C6.66617 21.8066 8.59375 19.8791 8.59375 17.5098C8.59375 15.1405 6.66617 13.2129 4.29688 13.2129C1.92758 13.2129 0 15.1405 0 17.5098C0 19.8791 1.92758 21.8066 4.29688 21.8066ZM4.29688 15.3613C5.48152 15.3613 6.44531 16.3251 6.44531 17.5098C6.44531 18.6944 5.48152 19.6582 4.29688 19.6582C3.11223 19.6582 2.14844 18.6944 2.14844 17.5098C2.14844 16.3251 3.11223 15.3613 4.29688 15.3613Z" fill="#58DAF8"/>
<path d="M4.29688 35.0195C6.66617 35.0195 8.59375 33.092 8.59375 30.7227C8.59375 28.3534 6.66617 26.4258 4.29688 26.4258C1.92758 26.4258 0 28.3534 0 30.7227C0 33.092 1.92758 35.0195 4.29688 35.0195ZM4.29688 28.5742C5.48152 28.5742 6.44531 29.538 6.44531 30.7227C6.44531 31.9073 5.48152 32.8711 4.29688 32.8711C3.11223 32.8711 2.14844 31.9073 2.14844 30.7227C2.14844 29.538 3.11223 28.5742 4.29688 28.5742Z" fill="#58DAF8"/>
<path d="M43.1836 55C43.7769 55 44.2578 54.5191 44.2578 53.9258C44.2578 53.3325 43.7769 52.8516 43.1836 52.8516C42.5903 52.8516 42.1094 53.3325 42.1094 53.9258C42.1094 54.5191 42.5903 55 43.1836 55Z" fill="#58DAF8"/>
<path d="M50.7031 30.293C49.9099 30.293 49.1662 30.509 48.5278 30.8853C48.2876 28.7419 46.4643 27.0703 44.2578 27.0703C43.4642 27.0703 42.7205 27.2874 42.0819 27.6642C41.8422 25.5202 40.0194 23.8477 37.8125 23.8477C37.0301 23.8477 36.2966 24.0588 35.6641 24.4257V18.4766C35.6641 16.1073 33.7365 14.1797 31.3672 14.1797C28.9979 14.1797 27.0703 16.1073 27.0703 18.4766V29.6484H21.6706C21.2811 28.1407 20.0917 26.9513 18.584 26.5618V21.6706C20.4352 21.1924 21.8066 19.5082 21.8066 17.5098C21.8066 15.1405 19.8791 13.2129 17.5098 13.2129C16.7296 13.2129 15.9813 13.4201 15.3268 13.8077L7.99895 6.47969C8.38653 5.82527 8.59375 5.07697 8.59375 4.29688C8.59375 1.92758 6.66617 0 4.29688 0C1.92758 0 0 1.92758 0 4.29688C0 6.66617 1.92758 8.59375 4.29688 8.59375C5.07708 8.59375 5.82538 8.38653 6.47979 7.99895L13.8077 15.3268C13.4201 15.9814 13.2129 16.7297 13.2129 17.5098C13.2129 19.5082 14.5843 21.1924 16.4355 21.6706V26.5618C14.5843 27.04 13.2129 28.7242 13.2129 30.7227C13.2129 33.092 15.1405 35.0195 17.5098 35.0195C19.5082 35.0195 21.1924 33.6481 21.6706 31.7969H27.0703V37.3114C25.6054 36.4661 23.6779 36.5297 22.2383 37.6802C20.3824 39.163 20.0828 41.8651 21.5673 43.7193L28.9793 52.9843C30.0038 54.2653 31.5323 55 33.173 55H38.3495C38.9427 55 39.4237 54.5191 39.4237 53.9258C39.4237 53.3325 38.9427 52.8516 38.3495 52.8516H33.173C32.1886 52.8516 31.2717 52.4108 30.657 51.6423L23.2447 42.3769C22.5033 41.451 22.6512 40.1003 23.5793 39.3585C24.5046 38.6191 25.8575 38.7643 26.5986 39.6928L27.3055 40.5769C27.5903 40.9333 28.0694 41.0707 28.4999 40.9198C28.9304 40.7687 29.2186 40.3624 29.2186 39.906V18.4766C29.2186 17.2919 30.1824 16.3281 31.3671 16.3281C32.5517 16.3281 33.5155 17.2919 33.5155 18.4766V34.5898C33.5155 35.1831 33.9966 35.6641 34.5897 35.6641C35.1829 35.6641 35.664 35.1831 35.664 34.5898V28.1445C35.664 26.9599 36.6277 25.9961 37.8124 25.9961C38.997 25.9961 39.9608 26.9599 39.9608 28.1445V34.5898C39.9608 35.1831 40.4419 35.6641 41.035 35.6641C41.6282 35.6641 42.1093 35.1831 42.1093 34.5898V31.3672C42.1093 30.1825 43.0731 29.2188 44.2577 29.2188C45.4424 29.2188 46.4061 30.1825 46.4061 31.3672V34.5898C46.4061 35.1831 46.8872 35.6641 47.4804 35.6641C48.0735 35.6641 48.5546 35.1831 48.5546 34.5898C48.5546 33.4052 49.5184 32.4414 50.703 32.4414C51.8877 32.4414 52.8515 33.4052 52.8515 34.5898V45.332C52.8515 48.5972 50.7677 51.4708 47.6661 52.4825C47.1021 52.6665 46.794 53.2728 46.9781 53.8368C47.126 54.2902 47.5467 54.5782 47.9991 54.5782C48.1094 54.5782 48.2218 54.561 48.3325 54.5249C52.3206 53.224 55 49.5296 55 45.332V34.5898C55 32.2205 53.0724 30.293 50.7031 30.293ZM2.14844 4.29688C2.14844 3.11223 3.11223 2.14844 4.29688 2.14844C5.48152 2.14844 6.44531 3.11223 6.44531 4.29688C6.44531 5.47937 5.48561 6.44531 4.29688 6.44531C3.11223 6.44531 2.14844 5.48152 2.14844 4.29688ZM15.3613 17.5098C15.3613 16.3273 16.321 15.3613 17.5098 15.3613C18.6944 15.3613 19.6582 16.3251 19.6582 17.5098C19.6582 18.6944 18.6944 19.6582 17.5098 19.6582C16.3251 19.6582 15.3613 18.6944 15.3613 17.5098ZM17.5098 32.8711C16.3251 32.8711 15.3613 31.9073 15.3613 30.7227C15.3613 29.538 16.3251 28.5742 17.5098 28.5742C18.6944 28.5742 19.6582 29.538 19.6582 30.7227C19.6582 31.9073 18.6944 32.8711 17.5098 32.8711Z" fill="#58DAF8"/>
</g>
<defs>
<clipPath id="clip0_336_627">
<rect width="55" height="55" fill="white"/>
</clipPath>
</defs>
</svg>
