<svg width="56" height="55" viewBox="0 0 56 55" fill="none" xmlns="http://www.w3.org/2000/svg">
<path d="M52.2 13.4303C51.7489 9.06212 46.6399 8.91173 46.0332 12.748C45.521 13.2292 44.2852 14.4745 43.8048 15.6999C43.3004 16.9907 42.734 21.4663 42.6051 22.5285C41.8274 24.3719 37.7815 26.8959 37.6474 26.7515C28.6918 31.1919 29.2616 36.9961 29.4756 39.1815C29.4756 39.1815 29.4911 46.7552 29.4644 51.266C29.4524 51.7301 29.8597 52.1391 30.3238 52.1306H38.0754C38.5575 52.1417 38.9751 51.6949 38.933 51.2145L38.6236 46.5859C38.5093 44.8809 39.1736 43.2549 40.4455 42.1249C43.2522 39.6318 47.7253 36.0327 47.7932 35.9786C49.328 34.6552 50.7391 32.6992 51.3037 31.1111C54.0374 23.4249 52.2765 13.8359 52.2 13.432V13.4303ZM45.4067 16.3256C45.5536 15.95 45.839 15.5332 46.1535 15.1431L45.8458 20.087C45.4428 20.2013 45.0234 20.3758 44.5903 20.625C44.8481 18.816 45.1652 16.9426 45.4067 16.3256ZM49.6847 30.5336C49.2189 31.8442 47.9797 33.5474 46.694 34.656C46.6493 34.6921 42.1436 38.3178 39.3051 40.8384C37.6328 42.3242 36.7597 44.4606 36.9092 46.6984L37.1575 50.4101H31.19C31.2115 46.6237 31.1875 39.0122 31.1875 39.0122C30.9881 36.9746 30.5206 32.2034 38.3727 28.3078C38.493 28.2554 41.3212 27.0093 43.1156 24.7681C44.1013 22.3945 49.1561 19.4202 46.7576 24.2877C44.6986 28.0182 39.7133 33.1865 39.6626 33.2389C39.3326 33.5792 39.3412 34.1232 39.6824 34.4541C40.0236 34.7832 40.5667 34.7755 40.8975 34.4343C41.1081 34.216 46.0907 29.0495 48.2607 25.1187C49.3564 23.1344 49.3856 21.4002 48.338 20.4789C48.1111 20.2795 47.8533 20.1369 47.5706 20.0475L48.0536 12.2848C49.0178 10.7396 50.3378 12.1997 50.5122 13.7483C50.5844 14.1333 52.2645 23.2796 49.6847 30.5336ZM18.3553 26.7515C18.2212 26.895 14.1753 24.3719 13.3975 22.5285C13.2686 21.4663 12.7015 16.9907 12.1979 15.6999C11.7175 14.4745 10.4817 13.2292 9.9695 12.748C9.36278 8.91173 4.25379 9.06212 3.80262 13.4303C3.72614 13.8351 1.96528 23.4231 4.69895 31.1094C5.26356 32.6975 6.67465 34.6534 8.2095 35.9769C8.27739 36.031 12.7504 39.6301 15.5572 42.1231C16.829 43.2532 17.4933 44.8792 17.379 46.5842L17.0697 51.2127C17.0275 51.6931 17.4452 52.14 17.9273 52.1288H25.6789C26.1429 52.1374 26.5503 51.7284 26.5382 51.2643C26.5125 46.7543 26.5271 39.1798 26.5271 39.1798C26.7411 36.9944 27.3108 31.1902 18.3553 26.7498V26.7515ZM10.5968 16.3256C10.8383 16.9426 11.1554 18.8152 11.4132 20.625C10.9801 20.3758 10.5599 20.2013 10.1577 20.087L9.85004 15.1431C10.1646 15.5332 10.4499 15.95 10.5968 16.3256ZM24.8169 39.0131C24.8169 39.0131 24.7929 46.6237 24.8143 50.4109H18.8468L19.0952 46.6993C19.2447 44.4615 18.3716 42.3251 16.6993 40.8392C13.8607 38.3178 9.35504 34.693 9.31036 34.6569C8.02473 33.5483 6.78551 31.8459 6.31973 30.5345C3.73989 23.2805 5.41997 14.135 5.49215 13.75C5.66661 12.2014 6.98661 10.7413 7.95083 12.2865L8.43379 20.0492C8.15106 20.1395 7.89239 20.2813 7.66637 20.4806C6.61879 21.4019 6.64715 23.137 7.74372 25.1204C9.91364 29.0512 14.8963 34.2177 15.1068 34.436C15.4377 34.7772 15.9808 34.7849 16.322 34.4558C16.6632 34.1249 16.6718 33.5809 16.3418 33.2406C16.2911 33.1882 11.3067 28.0199 9.24676 24.2894C6.84825 19.421 11.9031 22.3962 12.8888 24.7698C14.6832 27.011 17.5114 28.258 17.6317 28.3095C25.4847 32.2051 25.0172 36.9755 24.8169 39.0131ZM41.7097 2.65032C41.0093 2.40025 40.2556 2.62025 39.801 3.21064C38.0762 5.45017 34.5511 6.76415 29.6062 7.00736C18.7807 7.54189 15.9207 16.4244 15.9207 21.047C15.9207 21.4449 16.1931 21.7895 16.5798 21.8831C20.0207 22.7081 23.1411 23.1189 25.9315 23.1189C30.384 23.1189 33.9942 22.0696 36.7184 19.977C41.9812 15.932 42.7486 9.10939 42.8672 4.32782C42.8853 3.57587 42.4204 2.90126 41.7097 2.65032ZM35.6708 18.6141C32.0718 21.3804 26.619 22.0877 19.4415 20.7359C23.2228 17.7195 28.6686 15.5959 34.7951 12.8382C26.5168 13.1192 20.0491 17.5536 17.8036 19.3059C18.3235 16.0076 20.5072 9.179 29.6904 8.72525C35.2325 8.45196 39.092 6.94978 41.1485 4.28571C41.0385 8.71407 40.3501 15.0167 35.6708 18.6141Z" fill="#58DAF8"/>
</svg>
