<svg width="55" height="55" viewBox="0 0 55 55" fill="none" xmlns="http://www.w3.org/2000/svg">
<g clip-path="url(#clip0_326_495)">
<path d="M55.0003 43.7045C55.0007 44.3953 54.8964 45.0822 54.6909 45.7418L52.0623 54.1934C51.9899 54.4273 51.8444 54.6318 51.6473 54.7769C51.4502 54.9221 51.2117 55.0003 50.9669 55.0001C50.852 55 50.7377 54.983 50.6278 54.9497C50.484 54.905 50.3505 54.8325 50.2349 54.7362C50.1192 54.6399 50.0236 54.5218 49.9536 54.3886C49.8836 54.2553 49.8405 54.1096 49.8268 53.9598C49.8131 53.8099 49.8291 53.6588 49.8738 53.5151L52.5023 45.0611C52.6945 44.4444 52.7534 43.7938 52.6752 43.1526C52.597 42.5113 52.3834 41.894 52.0487 41.3415C51.7139 40.789 51.2656 40.3139 50.7334 39.9477C50.2013 39.5816 49.5974 39.3326 48.9617 39.2174L39.7423 37.5445C39.4781 37.4967 39.2391 37.3576 39.0669 37.1515C38.8948 36.9455 38.8005 36.6855 38.8005 36.417V23.052C38.7832 22.5502 38.5717 22.0748 38.2107 21.7259C37.8496 21.3771 37.3672 21.1821 36.8651 21.1821C36.3631 21.1821 35.8807 21.3771 35.5196 21.7259C35.1586 22.0748 34.9471 22.5502 34.9298 23.052V46.6836C34.9298 46.9101 34.8626 47.1314 34.7369 47.3198C34.6111 47.5081 34.4324 47.6549 34.2232 47.7417C34.0141 47.8285 33.7839 47.8514 33.5617 47.8075C33.3396 47.7635 33.1354 47.6548 32.975 47.4949L28.7034 43.2209C28.5121 43.0184 28.2821 42.8564 28.0271 42.7443C27.7721 42.6323 27.4972 42.5725 27.2187 42.5685C26.9402 42.5646 26.6637 42.6165 26.4056 42.7212C26.1475 42.826 25.9131 42.9815 25.7161 43.1784C25.5191 43.3754 25.3637 43.6099 25.2589 43.868C25.1541 44.1261 25.1022 44.4025 25.1062 44.6811C25.1101 44.9596 25.1699 45.2345 25.282 45.4895C25.394 45.7445 25.5561 45.9744 25.7586 46.1657L32.6336 53.0407C32.8487 53.2556 32.9697 53.5471 32.9699 53.8512C32.9702 54.1552 32.8496 54.4469 32.6347 54.6621C32.4199 54.8772 32.1284 54.9982 31.8243 54.9984C31.5202 54.9987 31.2285 54.8781 31.0134 54.6632L24.1384 47.7882C23.7321 47.3819 23.4098 46.8996 23.1899 46.3688C22.9701 45.838 22.8569 45.269 22.8569 44.6945C22.8569 44.1199 22.9701 43.551 23.1899 43.0201C23.4098 42.4893 23.7321 42.007 24.1384 41.6007C24.5447 41.1944 25.027 40.8722 25.5578 40.6523C26.0886 40.4324 26.6576 40.3192 27.2321 40.3192C27.8067 40.3192 28.3756 40.4324 28.9065 40.6523C29.4373 40.8722 29.9196 41.1944 30.3259 41.6007L32.6405 43.9153V23.0611C32.6662 21.9571 33.1228 20.907 33.9127 20.1352C34.7026 19.3635 35.7631 18.9314 36.8674 18.9314C37.9718 18.9314 39.0323 19.3635 39.8222 20.1352C40.6121 20.907 41.0687 21.9571 41.0944 23.0611V35.4705L49.3742 36.9715C50.9515 37.2584 52.3783 38.0892 53.4062 39.3194C54.4342 40.5496 54.9982 42.1013 55.0003 43.7045ZM31.8269 15.1434C31.612 14.9286 31.3206 14.8079 31.0168 14.8079C30.713 14.8079 30.4216 14.9286 30.2067 15.1434L19.3855 25.967L14.3438 20.9253C14.2381 20.8159 14.1117 20.7286 13.9719 20.6685C13.8321 20.6085 13.6817 20.5769 13.5296 20.5755C13.3774 20.5742 13.2265 20.6032 13.0857 20.6608C12.9449 20.7184 12.817 20.8035 12.7094 20.9111C12.6018 21.0187 12.5167 21.1466 12.4591 21.2874C12.4015 21.4283 12.3725 21.5791 12.3738 21.7313C12.3751 21.8834 12.4067 22.0338 12.4668 22.1736C12.5269 22.3134 12.6141 22.4398 12.7236 22.5455L18.5857 28.4099C18.8005 28.6247 19.0919 28.7454 19.3958 28.7454C19.6996 28.7454 19.991 28.6247 20.2059 28.4099L31.8384 16.7751C31.9457 16.6677 32.0307 16.5401 32.0883 16.3997C32.1459 16.2592 32.175 16.1087 32.1739 15.9569C32.1728 15.805 32.1416 15.655 32.0821 15.5153C32.0225 15.3757 31.9358 15.2493 31.8269 15.1434ZM16.8967 40.6336C13.6181 39.7845 10.6175 38.0953 8.191 35.7325C5.76451 33.3698 3.99599 30.4152 3.05993 27.1603C2.12388 23.9055 2.05263 20.4628 2.85323 17.172C3.65383 13.8811 5.2986 10.8559 7.62525 8.39482C9.95191 5.93371 12.88 4.12175 16.1207 3.13773C19.3614 2.15371 22.8027 2.03164 26.105 2.78355C29.4072 3.53547 32.4564 5.13539 34.9516 7.42545C37.4468 9.71551 39.3018 12.6166 40.3336 15.8424C40.4263 16.132 40.6302 16.3729 40.9005 16.5122C41.1709 16.6514 41.4854 16.6776 41.775 16.5849C42.0647 16.4922 42.3056 16.2883 42.4448 16.0179C42.5841 15.7476 42.6102 15.433 42.5175 15.1434C41.3639 11.5384 39.2903 8.29651 36.5013 5.7375C33.7124 3.17849 30.3044 1.39082 26.6137 0.550869C22.923 -0.28908 19.0771 -0.152286 15.4554 0.947755C11.8337 2.0478 8.56136 4.07307 5.96126 6.82376C3.36116 9.57446 1.52313 12.9555 0.628531 16.6334C-0.266073 20.3112 -0.186343 24.1587 0.859854 27.7964C1.90605 31.434 3.88256 34.736 6.59438 37.3766C9.3062 40.0172 12.6596 41.9052 16.3238 42.8543C16.4173 42.8787 16.5136 42.891 16.6103 42.8909C16.8905 42.8929 17.1618 42.792 17.3728 42.6075C17.5837 42.4229 17.7197 42.1674 17.755 41.8894C17.7903 41.6113 17.7224 41.33 17.5643 41.0986C17.4061 40.8672 17.1686 40.7018 16.8967 40.6336Z" fill="#58DAF8"/>
</g>
<defs>
<clipPath id="clip0_326_495">
<rect width="55" height="55" fill="white"/>
</clipPath>
</defs>
</svg>
