<svg width="56" height="55" viewBox="0 0 56 55" fill="none" xmlns="http://www.w3.org/2000/svg">
<g clip-path="url(#clip0_326_529)">
<path d="M5.99994 20.189H11.0416C13.3197 20.189 15.1669 18.3423 15.1669 16.0638C15.1669 13.7857 13.3197 11.939 11.0416 11.939H5.99994C5.49388 11.939 5.0835 12.3494 5.0835 12.8558V19.2722C5.0835 19.7787 5.49388 20.189 5.99994 20.189ZM6.9168 13.7723H11.0416C12.3072 13.7723 13.3332 14.7982 13.3332 16.0638C13.3332 17.3298 12.3072 18.3557 11.0416 18.3557H6.9168V13.7723Z" fill="#58DAF8"/>
<path d="M2.33331 33.0221H5.08347C6.09517 33.0213 6.91552 32.2009 6.91678 31.1888V23.8556H8.77065L13.1838 32.0583C13.5031 32.6524 14.1233 33.0225 14.798 33.0221H18.2158C18.8607 33.0221 19.4587 32.6831 19.7894 32.1287C20.1204 31.5749 20.1355 30.8879 19.8296 30.3198L15.8022 22.838C16.4098 22.4906 16.9687 22.0647 17.4647 21.5704C19.0601 19.975 19.8867 17.7669 19.731 15.5161C19.3634 11.3724 15.8626 8.21395 11.7033 8.27228H2.33331C1.32119 8.27354 0.501259 9.09347 0.5 10.1056V31.1888C0.501259 32.2009 1.32119 33.0213 2.33331 33.0221ZM2.33331 10.1056H11.7033C14.8996 10.0452 17.6023 12.4592 17.9015 15.6424C18.0215 17.3645 17.3892 19.0539 16.1685 20.2742C15.6037 20.8373 14.9336 21.2833 14.1963 21.5871C13.9558 21.6853 13.7683 21.8813 13.6806 22.1259C13.5929 22.3706 13.613 22.6412 13.7364 22.8699L18.22 31.1888H14.798L10.126 22.5048C9.96613 22.2073 9.65604 22.0223 9.31824 22.0223H5.99992C5.49386 22.0223 5.08347 22.4327 5.08347 22.9387V31.1888H2.33331V10.1056Z" fill="#58DAF8"/>
<path d="M18.8334 35.7723C17.8213 35.7736 17.001 36.5935 17.0001 37.6056V45.8557C17.0001 46.3618 17.4105 46.7722 17.9166 46.7722H24.3333C24.8394 46.7722 25.2498 46.3618 25.2498 45.8557V37.6056C25.2489 36.5935 24.4286 35.7736 23.4165 35.7723H18.8334ZM18.8334 44.9389V37.6056H23.4165V44.9389H18.8334Z" fill="#58DAF8"/>
<path d="M28.9169 26.6058C27.9047 26.6067 27.0844 27.427 27.0831 28.4391V45.8558C27.0831 46.3618 27.4939 46.7722 28 46.7722H34.4168C34.9228 46.7722 35.3332 46.3618 35.3332 45.8558V28.4391C35.332 27.427 34.512 26.6067 33.4999 26.6058H28.9169ZM28.9169 44.9389V28.4391H33.4999V44.9389H28.9169Z" fill="#58DAF8"/>
<path d="M38.0834 46.7721H44.5001C45.0062 46.7721 45.4166 46.3618 45.4166 45.8557V19.2721C45.4153 18.26 44.5954 17.4401 43.5833 17.4388H38.9998C37.9881 17.4401 37.1678 18.26 37.1665 19.2721V45.8557C37.1665 46.3618 37.5769 46.7721 38.0834 46.7721ZM38.9998 19.2721H43.5833V44.9388H38.9998V19.2721Z" fill="#58DAF8"/>
<path d="M48.1667 46.7722H54.5831C55.0896 46.7722 55.5 46.3618 55.5 45.8557V10.1056C55.4987 9.09353 54.6788 8.2736 53.6667 8.27234H49.0832C48.0711 8.2736 47.2511 9.09353 47.2499 10.1056V45.8557C47.2499 46.3618 47.6603 46.7722 48.1667 46.7722ZM49.0832 10.1056H53.6667V44.9389H49.0832V10.1056Z" fill="#58DAF8"/>
</g>
<defs>
<clipPath id="clip0_326_529">
<rect width="55" height="55" fill="white" transform="translate(0.5)"/>
</clipPath>
</defs>
</svg>
