<svg width="55" height="55" viewBox="0 0 55 55" fill="none" xmlns="http://www.w3.org/2000/svg">
<g clip-path="url(#clip0_336_655)">
<path fill-rule="evenodd" clip-rule="evenodd" d="M36.8184 25.5474C39.103 27.8321 42.8071 27.8321 45.092 25.5474C47.3766 23.2627 47.3766 19.5584 45.092 17.2737C42.8071 14.989 39.103 14.989 36.8184 17.2737C34.5335 19.5584 34.5335 23.2627 36.8184 25.5474ZM38.8868 23.479C40.0291 24.6214 41.8813 24.6214 43.0236 23.479C44.1659 22.3366 44.1659 20.4845 43.0236 19.3422C41.8813 18.1998 40.0291 18.1998 38.8868 19.3422C37.7442 20.4845 37.7442 22.3366 38.8868 23.479Z" fill="#58DAF8"/>
<path d="M30.7858 41.1851C31.0918 41.9328 31.9149 42.3503 32.6813 42.0949C33.4477 41.8395 33.866 41.0082 33.5662 40.2582C31.3907 34.8164 27.5491 30.9751 22.1074 28.7993C21.3573 28.4995 20.5262 28.9181 20.2708 29.6842C20.0154 30.4506 20.4328 31.2737 21.1805 31.5797C25.739 33.4448 28.9207 36.6265 30.7858 41.1851Z" fill="#58DAF8"/>
<path fill-rule="evenodd" clip-rule="evenodd" d="M41.1341 8.27191C45.0989 7.38698 48.8335 7.31361 51.1324 7.38783C53.2485 7.45613 54.91 9.11772 54.9781 11.2337C55.0524 13.5325 54.979 17.2672 54.0941 21.232C53.2113 25.1875 51.4945 29.4872 48.1949 32.7868L48.1297 32.852C45.4628 35.5189 43.368 37.6137 41.636 39.1134L42.3314 45.3716C42.4296 46.2547 42.121 47.1346 41.4927 47.7629L35.2843 53.971C33.7994 55.4562 31.28 54.939 30.4998 52.9891L27.6241 45.7995L18.3946 47.3376C16.4148 47.6676 14.6983 45.9513 15.0283 43.9713L16.5666 34.7417L9.37692 31.866C7.4271 31.0861 6.90993 28.5666 8.39487 27.0815L14.6031 20.8734C15.2315 20.245 16.1113 19.9364 16.9946 20.0345L23.2524 20.7299C24.7524 18.9978 26.8469 16.9032 29.514 14.2361L29.579 14.171C32.8786 10.8714 37.1786 9.15479 41.1341 8.27191ZM41.7712 11.1269C38.1208 11.9416 34.4123 13.4747 31.6474 16.2395C28.5806 19.3063 26.4133 21.476 24.9952 23.1991L24.4918 23.8107L16.6715 22.9418L10.4633 29.1499L17.653 32.026C18.9293 32.5364 19.6779 33.8668 19.4519 35.2226L17.9137 44.4522L27.1432 42.9141C28.4993 42.688 29.8297 43.4366 30.3401 44.7131L33.2159 51.9026L39.424 45.6945L38.5552 37.8743L39.1669 37.3709C40.8901 35.9525 43.0597 33.7852 46.1265 30.7184C48.8914 27.9538 50.4245 24.2451 51.2391 20.5947C52.0518 16.9535 52.124 13.4846 52.0547 11.3281C52.036 10.7536 51.6124 10.33 51.0379 10.3115C48.8814 10.2419 45.4125 10.3141 41.7712 11.1269Z" fill="#58DAF8"/>
<path fill-rule="evenodd" clip-rule="evenodd" d="M17.9073 58.814C17.3361 58.243 17.3361 57.3169 17.9073 56.7456L24.1124 50.5404C24.6837 49.9694 25.6098 49.9694 26.1808 50.5404C26.7521 51.1117 26.7521 52.0378 26.1808 52.6088L19.9757 58.814C19.4045 59.3853 18.4784 59.3853 17.9073 58.814Z" fill="#58DAF8"/>
<path fill-rule="evenodd" clip-rule="evenodd" d="M3.42838 44.3352C2.85721 43.7642 2.85721 42.838 3.42838 42.2668L9.63365 36.0615C10.2048 35.4906 11.1309 35.4906 11.7021 36.0615C12.2732 36.6328 12.2732 37.559 11.7021 38.13L5.49681 44.3352C4.92564 44.9064 3.99955 44.9064 3.42838 44.3352Z" fill="#58DAF8"/>
<path fill-rule="evenodd" clip-rule="evenodd" d="M6.52555 55.706C5.95437 55.135 5.95437 54.2089 6.52555 53.6376L12.7308 47.4324C13.302 46.8614 14.228 46.8614 14.7992 47.4324C15.3704 48.0037 15.3704 48.9298 14.7992 49.5008L8.59398 55.706C8.02278 56.2773 7.09672 56.2773 6.52555 55.706Z" fill="#58DAF8"/>
</g>
<defs>
<clipPath id="clip0_336_655">
<rect width="55" height="55" fill="white"/>
</clipPath>
</defs>
</svg>
