<svg width="56" height="55" viewBox="0 0 56 55" fill="none" xmlns="http://www.w3.org/2000/svg">
<path d="M51.9368 10.8743L42.1153 6.94573C41.8808 6.85175 41.6191 6.85175 41.3846 6.94573L31.5632 10.8743C31.3811 10.9473 31.2251 11.0731 31.1152 11.2355C31.0052 11.398 30.9465 11.5896 30.9464 11.7857V21.9372C30.9515 23.8024 31.4369 25.6349 32.3558 27.2581C33.2748 28.8813 34.5963 30.2405 36.193 31.2047L41.2452 34.2356C41.3977 34.327 41.5722 34.3752 41.75 34.3752C41.9278 34.3752 42.1023 34.327 42.2548 34.2356L46.6607 31.5916V42.5916C46.6602 43.0187 46.4903 43.428 46.1884 43.73C45.8864 44.032 45.477 44.2018 45.05 44.2023H7.02141C6.59438 44.2018 6.18499 44.032 5.88304 43.73C5.58108 43.428 5.41122 43.0187 5.4107 42.5916V20.625H28C28.2605 20.625 28.5103 20.5215 28.6945 20.3374C28.8787 20.1532 28.9821 19.9034 28.9821 19.6429C28.9821 19.3824 28.8787 19.1326 28.6945 18.9484C28.5103 18.7642 28.2605 18.6607 28 18.6607H5.4107V16.3429C5.41122 15.9158 5.58108 15.5065 5.88304 15.2045C6.18499 14.9025 6.59438 14.7327 7.02141 14.7322H28C28.2605 14.7322 28.5103 14.6287 28.6945 14.4445C28.8787 14.2603 28.9821 14.0105 28.9821 13.75C28.9821 13.4895 28.8787 13.2397 28.6945 13.0555C28.5103 12.8713 28.2605 12.7679 28 12.7679H7.02141C6.07342 12.7684 5.16441 13.1452 4.49408 13.8155C3.82375 14.4859 3.44693 15.3949 3.44641 16.3429V42.5857C3.44693 43.5337 3.82375 44.4427 4.49408 45.1131C5.16441 45.7834 6.07342 46.1602 7.02141 46.1607H45.05C45.998 46.1602 46.907 45.7834 47.5773 45.1131C48.2477 44.4427 48.6245 43.5337 48.625 42.5857V30.25C49.8485 29.2356 50.8344 27.9651 51.5132 26.5281C52.192 25.091 52.5471 23.5225 52.5536 21.9332V11.7857C52.5535 11.5896 52.4947 11.398 52.3848 11.2355C52.2749 11.0731 52.1188 10.9473 51.9368 10.8743ZM50.5893 21.9372C50.5853 23.4634 50.188 24.9629 49.4359 26.2909C48.6838 27.619 47.6022 28.7309 46.2953 29.5193L41.75 32.2477L37.2046 29.5193C35.8978 28.7309 34.8162 27.619 34.0641 26.2909C33.3119 24.9629 32.9147 23.4634 32.9107 21.9372V12.4497L41.75 8.91394L50.5893 12.4497V21.9372Z" fill="#58DAF8"/>
<path d="M38.5168 19.1164C38.4256 19.0251 38.3173 18.9527 38.1981 18.9032C38.0789 18.8537 37.9512 18.8282 37.8221 18.8281C37.6931 18.828 37.5653 18.8534 37.446 18.9027C37.3268 18.952 37.2184 19.0243 37.1271 19.1155C37.0357 19.2066 36.9633 19.3149 36.9138 19.4341C36.8643 19.5533 36.8388 19.6811 36.8387 19.8101C36.8387 19.9392 36.864 20.067 36.9133 20.1862C36.9626 20.3055 37.0349 20.4139 37.1261 20.5052L39.7464 23.1236C39.9306 23.3077 40.1804 23.4111 40.4408 23.4111C40.7012 23.4111 40.951 23.3077 41.1352 23.1236L46.3739 17.8848C46.5581 17.7004 46.6615 17.4504 46.6613 17.1898C46.6611 16.9291 46.5574 16.6793 46.373 16.4951C46.1885 16.3109 45.9385 16.2076 45.6779 16.2078C45.4173 16.2079 45.1674 16.3117 44.9832 16.4961L40.4398 21.0414L38.5168 19.1164Z" fill="#58DAF8"/>
<path d="M10.3214 38.3036C10.0609 38.3036 9.81108 38.4071 9.6269 38.5913C9.44271 38.7754 9.33923 39.0253 9.33923 39.2857C9.33923 39.5462 9.44271 39.796 9.6269 39.9802C9.81108 40.1644 10.0609 40.2679 10.3214 40.2679H18.1785C18.439 40.2679 18.6888 40.1644 18.873 39.9802C19.0572 39.796 19.1607 39.5462 19.1607 39.2857C19.1607 39.0253 19.0572 38.7754 18.873 38.5913C18.6888 38.4071 18.439 38.3036 18.1785 38.3036H10.3214Z" fill="#58DAF8"/>
</svg>
