<svg width="55" height="55" viewBox="0 0 55 55" fill="none" xmlns="http://www.w3.org/2000/svg">
<g clip-path="url(#clip0_336_359)">
<path d="M33.2292 55H5.72917C4.21026 54.9981 2.75408 54.3939 1.68004 53.3199C0.606011 52.2459 0.00181942 50.7897 0 49.2708L0 21.7708C0.00181942 20.2519 0.606011 18.7957 1.68004 17.7217C2.75408 16.6476 4.21026 16.0434 5.72917 16.0416H33.2292C34.7481 16.0434 36.2043 16.6476 37.2783 17.7217C38.3523 18.7957 38.9565 20.2519 38.9583 21.7708V49.2708C38.9565 50.7897 38.3523 52.2459 37.2783 53.3199C36.2043 54.3939 34.7481 54.9981 33.2292 55ZM5.72917 18.3333C4.81749 18.3333 3.94314 18.6955 3.29849 19.3401C2.65383 19.9848 2.29167 20.8591 2.29167 21.7708V49.2708C2.29167 50.1825 2.65383 51.0568 3.29849 51.7015C3.94314 52.3461 4.81749 52.7083 5.72917 52.7083H33.2292C34.1409 52.7083 35.0152 52.3461 35.6598 51.7015C36.3045 51.0568 36.6667 50.1825 36.6667 49.2708V21.7708C36.6667 20.8591 36.3045 19.9848 35.6598 19.3401C35.0152 18.6955 34.1409 18.3333 33.2292 18.3333H5.72917Z" fill="#58DAF8"/>
<path d="M41.25 46.9792H37.8125C37.5086 46.9792 37.2172 46.8585 37.0023 46.6436C36.7874 46.4287 36.6667 46.1373 36.6667 45.8334C36.6667 45.5295 36.7874 45.238 37.0023 45.0231C37.2172 44.8083 37.5086 44.6875 37.8125 44.6875H41.25C42.1617 44.6875 43.0361 44.3254 43.6807 43.6807C44.3254 43.0361 44.6875 42.1617 44.6875 41.25V13.75C44.6875 12.8384 44.3254 11.964 43.6807 11.3194C43.0361 10.6747 42.1617 10.3125 41.25 10.3125H13.75C12.8384 10.3125 11.964 10.6747 11.3194 11.3194C10.6747 11.964 10.3125 12.8384 10.3125 13.75V17.1875C10.3125 17.4914 10.1918 17.7829 9.97693 17.9978C9.76205 18.2127 9.4706 18.3334 9.16671 18.3334C8.86281 18.3334 8.57137 18.2127 8.35648 17.9978C8.1416 17.7829 8.02087 17.4914 8.02087 17.1875V13.75C8.02269 12.2311 8.62688 10.775 9.70092 9.70092C10.775 8.62688 12.2311 8.02269 13.75 8.02087H41.25C42.769 8.02269 44.2251 8.62688 45.2992 9.70092C46.3732 10.775 46.9774 12.2311 46.9792 13.75V41.25C46.9774 42.769 46.3732 44.2251 45.2992 45.2992C44.2251 46.3732 42.769 46.9774 41.25 46.9792Z" fill="#58DAF8"/>
<path d="M49.2708 38.9583H45.8333C45.5294 38.9583 45.238 38.8376 45.0231 38.6227C44.8082 38.4078 44.6875 38.1164 44.6875 37.8125C44.6875 37.5086 44.8082 37.2172 45.0231 37.0023C45.238 36.7874 45.5294 36.6667 45.8333 36.6667H49.2708C50.1825 36.6667 51.0568 36.3045 51.7015 35.6598C52.3461 35.0152 52.7083 34.1409 52.7083 33.2292V5.72917C52.7083 4.81749 52.3461 3.94314 51.7015 3.29849C51.0568 2.65383 50.1825 2.29167 49.2708 2.29167H21.7708C20.8591 2.29167 19.9848 2.65383 19.3401 3.29849C18.6955 3.94314 18.3333 4.81749 18.3333 5.72917V9.16667C18.3333 9.47056 18.2126 9.76201 17.9977 9.97689C17.7828 10.1918 17.4914 10.3125 17.1875 10.3125C16.8836 10.3125 16.5921 10.1918 16.3772 9.97689C16.1623 9.76201 16.0416 9.47056 16.0416 9.16667V5.72917C16.0434 4.21026 16.6476 2.75408 17.7217 1.68004C18.7957 0.606011 20.2519 0.00181942 21.7708 0L49.2708 0C50.7897 0.00181942 52.2459 0.606011 53.3199 1.68004C54.3939 2.75408 54.9981 4.21026 55 5.72917V33.2292C54.9981 34.7481 54.3939 36.2043 53.3199 37.2783C52.2459 38.3523 50.7897 38.9565 49.2708 38.9583Z" fill="#58DAF8"/>
</g>
<defs>
<clipPath id="clip0_336_359">
<rect width="55" height="55" fill="white"/>
</clipPath>
</defs>
</svg>
